<?xml version="1.0" encoding="UTF-8" ?>
<!DOCTYPE svg PUBLIC "-//W3C//DTD SVG 1.1//EN" "http://www.w3.org/Graphics/SVG/1.1/DTD/svg11.dtd">
<svg width="1024pt" height="230pt" viewBox="0 0 1024 230" version="1.1" xmlns="http://www.w3.org/2000/svg">
<g id="#1ab792ff">
<path fill="#1ab792" opacity="1.00" d=" M 107.85 5.27 C 132.73 -0.65 159.60 2.07 182.68 13.12 C 206.65 24.42 226.34 44.45 237.25 68.60 C 249.28 94.85 250.61 125.74 240.99 152.96 C 232.39 177.65 214.88 199.08 192.45 212.50 C 178.36 220.98 162.39 226.34 146.03 228.02 C 138.72 228.86 131.35 228.59 124.01 228.63 C 88.54 228.61 53.07 228.68 17.59 228.60 C 31.04 218.80 44.46 208.97 57.90 199.17 C 37.10 180.54 23.77 153.83 21.32 126.02 C 18.71 99.50 25.94 72.15 41.33 50.40 C 57.02 27.93 81.14 11.48 107.85 5.27 M 112.26 132.87 C 103.56 124.08 94.75 115.40 86.06 106.61 C 80.40 112.36 74.67 118.02 68.97 123.73 C 83.44 138.10 97.85 152.52 112.23 166.99 C 140.89 138.44 169.45 109.79 198.09 81.22 C 192.36 75.55 186.67 69.86 181.00 64.13 C 158.12 87.08 135.18 109.96 112.26 132.87 Z" />
</g>
<g id="#898589ff">
<path fill="#898589" opacity="1.00" d=" M 537.06 37.68 C 540.15 37.66 543.25 37.65 546.35 37.66 C 546.44 61.31 546.10 84.98 546.51 108.62 C 550.78 99.75 558.05 92.32 567.12 88.39 C 579.00 83.16 593.36 83.16 605.00 89.06 C 617.42 95.62 624.29 109.35 626.10 122.84 C 627.86 137.26 626.96 152.47 620.83 165.83 C 615.44 177.50 605.58 187.72 592.88 191.03 C 581.78 193.89 569.15 193.05 559.46 186.51 C 553.75 182.83 549.78 177.19 546.38 171.43 C 546.25 177.66 546.38 183.89 546.32 190.11 C 543.26 190.12 540.19 190.12 537.13 190.11 C 537.05 139.30 537.19 88.49 537.06 37.68 M 575.49 93.83 C 567.75 95.24 560.50 99.43 555.72 105.72 C 549.32 113.64 546.13 123.88 546.33 134.02 C 546.52 142.27 545.54 150.76 548.10 158.77 C 551.33 169.21 559.14 178.64 569.69 182.20 C 578.33 185.05 588.26 184.93 596.37 180.52 C 604.61 175.98 610.24 167.78 613.44 159.10 C 617.18 148.51 617.98 136.99 616.66 125.88 C 615.37 115.06 610.41 104.06 601.10 97.88 C 593.65 92.82 584.11 92.32 575.49 93.83 Z" />
<path fill="#898589" opacity="1.00" d=" M 997.40 37.66 C 1000.47 37.68 1003.55 37.67 1006.63 37.59 C 1006.78 88.41 1006.65 139.25 1006.70 190.07 C 1003.60 190.12 1000.52 190.14 997.44 190.11 C 997.30 183.73 997.63 177.35 997.29 170.98 C 991.87 181.85 981.01 189.48 969.16 191.70 C 957.35 193.98 944.26 191.99 934.71 184.31 C 924.49 176.40 918.92 163.81 917.50 151.18 C 915.75 136.43 917.16 120.69 924.65 107.59 C 930.76 96.83 941.13 88.18 953.42 85.69 C 965.50 83.22 979.43 84.51 988.98 93.01 C 992.57 95.97 994.86 100.04 997.44 103.83 C 997.40 81.77 997.46 59.72 997.40 37.66 M 956.49 93.76 C 943.44 96.23 933.23 107.11 929.40 119.52 C 925.76 131.32 925.70 144.11 928.29 156.13 C 930.48 165.84 936.14 175.11 944.93 180.14 C 953.68 185.18 964.53 184.98 973.98 182.13 C 983.98 179.10 991.61 170.62 995.07 160.94 C 997.86 153.64 997.44 145.73 997.43 138.06 C 997.26 131.41 998.00 124.63 996.36 118.10 C 994.39 109.92 989.27 102.48 982.18 97.90 C 974.61 93.12 965.15 92.26 956.49 93.76 Z" />
<path fill="#898589" opacity="1.00" d=" M 671.37 91.33 C 678.86 84.80 689.89 83.57 699.08 86.86 C 698.86 90.14 698.88 93.44 699.12 96.72 C 692.47 92.32 683.34 92.43 676.70 96.78 C 670.37 100.94 666.05 107.59 663.48 114.61 C 660.34 123.37 659.46 132.76 659.48 142.01 C 659.48 158.04 659.50 174.07 659.47 190.10 C 656.41 190.14 653.36 190.18 650.32 189.97 C 650.50 155.69 650.35 121.41 650.39 87.13 C 653.41 87.15 656.44 87.14 659.47 87.12 C 659.58 94.81 659.30 102.51 659.59 110.19 C 662.08 103.16 665.39 96.09 671.37 91.33 Z" />
<path fill="#898589" opacity="1.00" d=" M 719.77 95.66 C 727.88 89.47 738.00 86.41 747.98 84.95 C 758.15 83.69 769.57 85.43 777.07 92.97 C 784.78 100.44 787.05 111.65 787.20 121.99 C 787.22 144.70 787.22 167.41 787.20 190.11 C 784.08 190.12 780.97 190.12 777.86 190.11 C 777.76 183.12 778.01 176.12 777.74 169.13 C 773.61 178.00 766.47 185.53 757.44 189.46 C 749.15 193.13 739.57 193.44 730.88 191.07 C 721.48 188.50 713.62 180.68 711.38 171.14 C 709.18 161.72 710.89 150.92 717.63 143.66 C 724.57 136.22 734.73 132.97 744.49 131.22 C 755.62 129.48 766.78 127.89 777.92 126.19 C 777.78 117.43 776.85 107.94 771.23 100.81 C 766.97 95.33 759.81 92.92 753.04 93.11 C 740.63 92.92 729.02 98.90 719.80 106.81 C 719.83 103.09 719.86 99.38 719.77 95.66 M 744.86 139.57 C 738.45 140.85 731.76 142.42 726.52 146.54 C 721.17 150.99 719.94 158.51 720.37 165.10 C 720.73 172.04 725.02 178.62 731.30 181.62 C 737.69 184.62 745.13 184.70 751.91 183.06 C 761.53 180.73 769.43 173.43 773.71 164.65 C 778.48 155.39 777.96 144.73 777.82 134.63 C 766.86 136.44 755.82 137.73 744.86 139.57 Z" />
<path fill="#898589" opacity="1.00" d=" M 835.41 93.37 C 844.87 85.05 858.57 83.03 870.60 85.66 C 878.75 87.45 885.81 93.08 889.68 100.44 C 895.09 110.36 895.61 121.98 895.38 133.03 C 895.37 152.06 895.40 171.09 895.37 190.11 C 892.29 190.12 889.23 190.12 886.17 190.11 C 886.12 173.75 886.16 157.38 886.15 141.02 C 886.10 130.54 886.72 119.73 883.18 109.69 C 880.82 102.50 875.25 96.13 867.76 94.17 C 858.91 91.89 848.96 93.12 841.32 98.30 C 831.36 105.09 825.60 117.03 825.42 128.96 C 825.31 149.35 825.42 169.73 825.37 190.11 C 822.28 190.12 819.21 190.12 816.14 190.11 C 816.08 155.79 816.16 121.47 816.10 87.15 C 819.18 87.15 822.27 87.14 825.37 87.12 C 825.40 93.42 825.36 99.72 825.35 106.02 C 828.35 101.54 831.17 96.83 835.41 93.37 Z" />
</g>
<g id="#292f33ff">
<path fill="#292f33" opacity="1.00" d=" M 331.28 40.38 C 337.56 37.51 345.81 42.02 346.34 49.00 C 347.38 55.44 341.41 61.56 335.00 61.03 C 330.08 60.93 325.51 57.01 324.92 52.08 C 324.02 47.30 326.81 42.23 331.28 40.38 Z" />
<path fill="#292f33" opacity="1.00" d=" M 378.44 40.70 C 384.43 37.43 392.83 41.26 394.03 48.03 C 395.60 54.21 390.44 60.94 384.06 60.94 C 378.70 61.57 373.35 57.38 372.75 52.01 C 371.97 47.51 374.34 42.73 378.44 40.70 Z" />
<path fill="#292f33" opacity="1.00" d=" M 455.66 88.63 C 464.34 84.33 474.60 83.68 483.95 85.95 C 491.38 87.73 497.97 92.60 501.85 99.19 C 506.71 107.22 508.13 116.80 508.26 126.04 C 508.25 147.40 508.27 168.75 508.25 190.11 C 502.74 190.12 497.23 190.12 491.72 190.11 C 491.70 173.06 491.72 156.01 491.71 138.96 C 491.74 129.55 492.15 119.69 488.14 110.92 C 485.89 105.82 481.59 101.52 476.21 99.84 C 467.85 97.25 458.11 98.61 451.22 104.17 C 443.48 110.27 439.35 120.16 439.29 129.90 C 439.23 149.97 439.30 170.04 439.26 190.11 C 433.74 190.12 428.23 190.12 422.72 190.11 C 422.69 155.79 422.73 121.47 422.70 87.15 C 428.23 87.14 433.75 87.14 439.27 87.15 C 439.28 92.91 439.25 98.67 439.26 104.43 C 443.50 98.07 448.63 91.98 455.66 88.63 Z" />
<path fill="#292f33" opacity="1.00" d=" M 327.07 87.16 C 332.58 87.13 338.08 87.14 343.59 87.16 C 343.59 121.43 343.52 155.71 343.63 189.99 C 338.13 190.27 332.62 190.06 327.11 190.11 C 327.05 155.79 327.14 121.48 327.07 87.16 Z" />
<path fill="#292f33" opacity="1.00" d=" M 374.84 87.15 C 380.36 87.14 385.88 87.15 391.40 87.14 C 391.40 121.46 391.42 155.79 391.39 190.11 C 385.87 190.12 380.36 190.12 374.84 190.11 C 374.82 155.79 374.83 121.47 374.84 87.15 Z" />
</g>
<g id="#ffffffff">
<path fill="#ffffff" opacity="1.00" d=" M 112.26 132.87 C 135.18 109.96 158.12 87.08 181.00 64.13 C 186.67 69.86 192.36 75.55 198.09 81.22 C 169.45 109.79 140.89 138.44 112.23 166.99 C 97.85 152.52 83.44 138.10 68.97 123.73 C 74.67 118.02 80.40 112.36 86.06 106.61 C 94.75 115.40 103.56 124.08 112.26 132.87 Z" />
</g>
</svg>
