<svg version="1.1" xmlns="http://www.w3.org/2000/svg" xmlns:xlink="http://www.w3.org/1999/xlink" width="64" height="64" viewBox="0 0 300 300">
	<g id="widget" transform="matrix(1,0,0,1,150,150)">
		<path d="M-133.154,131.264 L-66.5044,82.5408 L-0.161523,131.264 Z" fill="#1ab691" fill-opacity="1" />
		<path d="M1.89053,131.263 L1.89053,131.263 C-70.6496,131.263 -129.373,72.5396 -129.373,-0.000559588 L-129.373,-0.000559588 C-129.373,-72.5407 -70.6496,-131.264 1.89053,-131.264 L1.89053,-131.264 C74.4307,-131.264 133.154,-72.5407 133.154,-0.000559588 L133.154,-0.000559588 C133.154,72.5396 74.4307,131.263 1.89053,131.263 Z" fill="#1ab691" fill-opacity="1" />
		<path d="M-4.19337,39.3303 L-24.0109,59.1478 L-73.5832,9.57548 L-53.7657,-10.242 L-4.19337,39.3303 L-4.19337,39.3303 Z" fill="#ffffff" fill-opacity="1" />
		<path d="M-23.3582,59.7997 L-43.1757,39.9822 L56.2555,-59.4491 L76.073,-39.6316 L-23.3582,59.7997 Z" fill="#ffffff" fill-opacity="1" />
	</g>
</svg>